<svg id="aeb044b6-c24e-4928-9296-dbe077306f56" data-name="Layer 1" xmlns="http://www.w3.org/2000/svg" xmlns:xlink="http://www.w3.org/1999/xlink" viewBox="0 0 890 890"><defs><linearGradient id="a4037b9a-93eb-45ec-829c-5104cc4db2d7" x1="98.59" y1="245" x2="791.41" y2="645" gradientUnits="userSpaceOnUse"><stop offset="0" stop-color="#606"/><stop offset="1" stop-color="#2385af"/></linearGradient><linearGradient id="f61574e1-0361-4ef4-abff-d03652ffc75d" x1="185.19" y1="295" x2="704.81" y2="595" xlink:href="#a4037b9a-93eb-45ec-829c-5104cc4db2d7"/></defs><polygon points="830.38 222.5 445 0 59.62 222.5 59.62 667.5 445 890 830.38 667.5 830.38 222.5" style="fill:#fff"/><path d="M445,97,746.41,271V619L445,793,143.59,619V271L445,97m0-52L98.59,245V645L445,845,791.41,645V245L445,45Z" style="fill:url(#a4037b9a-93eb-45ec-829c-5104cc4db2d7)"/><path d="M445,318.2l109.81,63.4V508.4L445,571.8,335.19,508.4V381.6L445,318.2M445,145,185.19,295V595L445,745,704.81,595V295L445,145Z" style="fill:url(#f61574e1-0361-4ef4-abff-d03652ffc75d)"/><path d="M843.71,696.81,664.34,801.39c-15.69,9.15-35.25-4.27-31.86-22.44l14.4-77.16c-136.48-23.45-201.46-.61-185.42,134.09,1.78,15-17.34,22.71-27.7,11.76-33.18-35.1-57.95-95-47.89-148.94,24.94-133.61,142-141,283.29-116.3l13.12-70.26c3.38-18.14,26.46-23.64,37.81-9.44L849.67,664.93A21.43,21.43,0,0,1,843.71,696.81Z" style="fill:#aaa;stroke:#fff;stroke-miterlimit:10;stroke-width:10px"/></svg>